<svg xmlns="http://www.w3.org/2000/svg" xmlns:xlink="http://www.w3.org/1999/xlink" width="423" zoomAndPan="magnify" viewBox="0 0 317.25 225" height="300" preserveAspectRatio="xMidYMid meet" version="1.2"><defs><clipPath id="2c01f7d90f"><path d="M 0 92 L 316.332031 92 L 316.332031 133 L 0 133 Z M 0 92 "/></clipPath><clipPath id="8679f1caee"><path d="M 0 185 L 316.332031 185 L 316.332031 224.734375 L 0 224.734375 Z M 0 185 "/></clipPath><clipPath id="7679c1d411"><path d="M 0 0.265625 L 316.332031 0.265625 L 316.332031 40 L 0 40 Z M 0 0.265625 "/></clipPath><clipPath id="7739de6090"><path d="M 156.304688 110.609375 L 160.042969 110.609375 L 160.042969 114.351562 L 156.304688 114.351562 Z M 156.304688 110.609375 "/></clipPath></defs><g id="89162d7aa4"><g clip-rule="nonzero" clip-path="url(#2c01f7d90f)"><path style=" stroke:none;fill-rule:nonzero;fill:#000000;fill-opacity:1;" d="M 296.550781 92.695312 L 19.613281 92.695312 C 8.6875 92.695312 -0.167969 101.558594 -0.167969 112.5 C -0.167969 123.441406 8.6875 132.304688 19.613281 132.304688 L 296.550781 132.304688 C 307.476562 132.304688 316.332031 123.441406 316.332031 112.5 C 316.332031 101.558594 307.476562 92.695312 296.550781 92.695312 Z M 296.550781 92.695312 "/></g><g clip-rule="nonzero" clip-path="url(#8679f1caee)"><path style=" stroke:none;fill-rule:nonzero;fill:#000000;fill-opacity:1;" d="M 296.550781 185.121094 L 19.613281 185.121094 C 8.6875 185.121094 -0.167969 193.988281 -0.167969 204.929688 C -0.167969 215.867188 8.6875 224.734375 19.613281 224.734375 L 296.550781 224.734375 C 307.476562 224.734375 316.332031 215.867188 316.332031 204.929688 C 316.332031 193.988281 307.476562 185.121094 296.550781 185.121094 Z M 296.550781 185.121094 "/></g><g clip-rule="nonzero" clip-path="url(#7679c1d411)"><path style=" stroke:none;fill-rule:nonzero;fill:#000000;fill-opacity:1;" d="M 19.613281 39.878906 L 296.550781 39.878906 C 307.476562 39.878906 316.332031 31.011719 316.332031 20.070312 C 316.332031 9.132812 307.476562 0.265625 296.550781 0.265625 L 19.613281 0.265625 C 8.6875 0.265625 -0.167969 9.132812 -0.167969 20.070312 C -0.167969 31.011719 8.6875 39.878906 19.613281 39.878906 Z M 19.613281 39.878906 "/></g><g clip-rule="nonzero" clip-path="url(#7739de6090)"><path style=" stroke:none;fill-rule:nonzero;fill:#000000;fill-opacity:1;" d="M 156.304688 110.609375 L 160.042969 110.609375 L 160.042969 114.351562 L 156.304688 114.351562 Z M 156.304688 110.609375 "/></g></g></svg>